<?xml version="1.0" standalone="no"?>
<!DOCTYPE svg PUBLIC "-//W3C//DTD SVG 20010904//EN"
 "http://www.w3.org/TR/2001/REC-SVG-20010904/DTD/svg10.dtd">
<svg version="1.0" xmlns="http://www.w3.org/2000/svg"
 width="1200.000000pt" height="1200.000000pt" viewBox="0 0 1200.000000 1200.000000"
 preserveAspectRatio="xMidYMid meet">
<metadata>
Created by potrace 1.14, written by Peter Selinger 2001-2017
</metadata>
<g transform="translate(0.000000,1200.000000) scale(0.100000,-0.100000)"
fill="#000000" stroke="none">
<path d="M5768 10245 c-1 -2 -49 -6 -105 -9 -56 -4 -110 -9 -120 -10 -10 -2
-46 -7 -78 -11 -90 -11 -101 -13 -220 -34 -60 -10 -150 -29 -200 -41 -49 -12
-97 -23 -105 -25 -280 -62 -758 -254 -1028 -414 -29 -17 -55 -31 -57 -31 -14
0 -267 -169 -369 -245 -65 -50 -130 -98 -144 -107 -14 -9 -28 -20 -31 -25 -3
-4 -35 -33 -71 -63 -180 -151 -438 -418 -566 -585 -115 -150 -143 -190 -214
-295 -253 -378 -454 -825 -565 -1256 -24 -94 -47 -186 -50 -205 -3 -19 -8 -41
-11 -50 -2 -9 -7 -34 -10 -55 -2 -22 -6 -46 -9 -54 -2 -8 -7 -33 -10 -55 -3
-23 -7 -50 -9 -60 -2 -11 -7 -49 -11 -85 -3 -36 -8 -72 -10 -80 -26 -102 -26
-726 0 -915 2 -16 9 -64 15 -105 5 -41 12 -88 15 -105 3 -16 10 -57 16 -90 14
-84 15 -87 44 -213 14 -62 30 -124 35 -138 6 -14 12 -39 15 -57 10 -58 104
-325 166 -469 209 -490 473 -897 819 -1262 97 -103 243 -244 300 -291 25 -21
47 -40 50 -44 18 -24 352 -275 450 -337 264 -168 604 -333 905 -439 113 -40
309 -97 378 -111 12 -2 58 -12 102 -23 137 -33 382 -70 580 -88 172 -15 711
-7 785 12 8 2 44 7 80 10 36 4 103 13 150 22 47 8 98 16 114 18 15 3 35 7 45
9 9 3 30 8 47 11 148 24 448 113 647 191 218 85 587 268 697 345 14 9 63 42
110 73 127 83 272 188 345 251 12 11 49 43 81 70 165 140 378 357 502 510 31
39 59 72 62 75 15 14 155 208 217 300 183 275 363 640 473 956 37 108 131 452
144 532 4 18 8 47 11 65 3 17 8 39 10 47 2 8 6 35 9 60 3 25 8 54 10 65 2 11
7 47 11 80 4 32 8 66 10 75 19 106 27 619 12 795 -10 110 -16 172 -22 205 -3
14 -7 43 -10 65 -33 268 -155 737 -244 940 -10 22 -31 72 -46 110 -35 84 -200
413 -254 506 -41 71 -171 271 -181 279 -4 3 -20 25 -37 50 -121 178 -437 528
-613 680 -14 12 -38 34 -55 49 -16 14 -64 53 -105 86 -41 32 -77 62 -80 65 -3
3 -36 28 -75 55 -38 27 -76 55 -82 62 -17 15 -239 156 -317 200 -274 154 -759
360 -937 397 -13 3 -49 12 -79 21 -30 8 -67 17 -83 20 -15 3 -53 12 -85 20
-95 25 -380 71 -497 80 -38 3 -83 8 -100 11 -32 6 -561 15 -567 9z m477 -99
c83 -4 162 -8 175 -11 14 -2 48 -6 75 -10 28 -3 64 -8 80 -10 17 -3 47 -7 68
-10 63 -8 287 -55 387 -80 543 -136 1119 -424 1560 -779 678 -545 1162 -1271
1405 -2106 50 -174 99 -405 120 -570 3 -25 8 -56 10 -70 24 -139 36 -573 21
-780 -7 -100 -17 -198 -22 -224 -2 -10 -6 -44 -9 -75 -4 -31 -9 -64 -11 -74
-3 -10 -7 -30 -9 -45 -3 -23 -45 -229 -60 -292 -94 -408 -317 -918 -565 -1290
-99 -150 -123 -183 -210 -291 -384 -479 -823 -842 -1350 -1116 -58 -30 -111
-59 -117 -65 -7 -6 -13 -8 -13 -4 0 4 -17 -2 -37 -13 -175 -89 -577 -229 -778
-272 -33 -7 -64 -14 -70 -15 -5 -2 -68 -14 -140 -28 -127 -24 -179 -32 -260
-42 -22 -2 -56 -6 -75 -9 -58 -8 -308 -19 -425 -18 -112 0 -376 11 -417 18
-13 2 -45 6 -73 10 -27 3 -63 8 -80 10 -16 3 -46 7 -65 10 -43 6 -68 11 -195
36 -581 116 -1177 385 -1659 749 -212 159 -472 400 -621 575 -33 38 -68 79
-78 90 -36 39 -174 221 -218 285 -24 36 -46 67 -49 70 -3 3 -12 16 -20 30 -7
14 -49 84 -93 155 -272 450 -470 1015 -542 1545 -9 63 -17 129 -20 145 -22
162 -22 678 0 845 3 19 7 53 9 75 6 48 14 107 23 155 3 19 7 44 9 55 2 16 43
215 59 287 40 181 184 587 261 740 13 27 21 48 18 48 -4 0 -2 6 4 13 6 6 37
64 70 128 249 479 599 912 1021 1266 440 368 946 638 1501 802 105 31 332 85
404 97 21 3 48 8 60 10 11 2 37 7 56 10 19 2 46 7 60 9 14 2 52 7 85 11 33 3
69 8 80 10 11 2 97 7 190 10 94 4 171 7 172 8 3 3 104 0 298 -8z"/>
<path d="M4918 9176 c-69 -36 -102 -135 -66 -197 31 -55 109 -93 161 -78 26 7
46 -11 372 -338 190 -189 345 -347 345 -350 0 -8 -617 -623 -626 -623 -4 0
-75 69 -158 153 l-151 153 0 56 c0 64 -21 100 -73 131 -110 64 -237 -29 -217
-158 5 -34 15 -52 46 -79 38 -35 59 -41 131 -36 23 1 53 -24 184 -156 l156
-157 -176 -176 c-97 -97 -179 -180 -183 -184 -4 -4 -8 -77 -8 -162 -1 -142 -2
-156 -20 -169 -11 -9 -23 -16 -26 -16 -4 0 -16 -18 -27 -41 -37 -74 -16 -146
58 -196 38 -27 83 -29 133 -8 102 43 118 189 28 256 l-29 21 0 130 1 130 524
523 524 524 59 -61 c33 -34 60 -64 60 -68 0 -3 -227 -234 -505 -513 l-505
-506 -1 -48 c0 -26 -1 -144 -1 -261 l0 -212 -33 -26 c-73 -56 -78 -158 -10
-224 64 -62 179 -49 226 26 40 65 22 159 -39 202 l-27 20 0 236 1 237 493 493
493 493 122 -125 122 -124 -319 -642 c-176 -352 -321 -642 -322 -644 -4 -4
-35 -10 -58 -11 -22 -1 -97 -76 -98 -99 0 -9 -3 -29 -5 -44 -11 -65 66 -147
140 -150 113 -4 192 118 140 217 -15 29 -14 31 320 702 185 370 336 680 336
690 0 10 -279 297 -640 658 l-640 640 3 45 c2 25 0 51 -6 58 -5 6 -6 12 -3 12
4 0 -2 14 -14 30 -44 62 -125 82 -192 46z"/>
<path d="M5410 9193 c-14 -3 -40 -16 -59 -30 -116 -88 -50 -268 99 -265 49 0
38 10 205 -170 44 -47 125 -134 180 -193 55 -59 115 -124 134 -144 18 -20 86
-92 151 -161 65 -69 133 -141 151 -161 19 -20 86 -92 149 -160 63 -67 124
-132 135 -144 11 -12 35 -37 53 -57 l33 -35 -324 -651 c-179 -358 -327 -649
-329 -647 -12 13 -85 -21 -114 -53 -29 -31 -34 -44 -34 -85 0 -66 22 -109 71
-137 57 -31 120 -29 162 6 63 52 79 122 44 190 -15 28 -11 36 319 696 184 367
334 679 334 691 0 27 -2 30 -153 191 -62 65 -130 138 -152 162 -22 23 -83 88
-135 144 -52 56 -113 120 -134 143 -21 23 -71 76 -110 117 -39 42 -125 134
-191 205 -66 71 -148 159 -182 195 -140 149 -132 137 -126 190 12 101 -76 181
-177 163z"/>
<path d="M6065 9194 c-5 -1 -22 -5 -38 -8 -37 -9 -85 -61 -93 -102 -11 -57 4
-105 46 -146 36 -37 38 -40 37 -106 0 -37 4 -75 9 -84 5 -9 47 -58 94 -109 47
-50 93 -101 103 -113 16 -17 133 -145 227 -247 14 -15 59 -64 100 -109 41 -46
80 -88 85 -94 6 -6 65 -69 130 -141 128 -140 164 -179 219 -238 l36 -38 0
-501 0 -501 88 -114 c125 -163 116 -149 103 -181 -15 -35 -5 -98 21 -134 80
-113 268 -50 268 91 0 78 -89 161 -157 147 -26 -5 -34 3 -116 114 l-89 120 0
501 -1 502 -36 41 c-37 42 -92 102 -152 167 -19 20 -70 76 -114 124 -44 48
-85 93 -91 99 -9 8 25 48 132 154 143 143 144 144 184 139 90 -10 164 58 164
150 0 59 -21 96 -71 125 -104 62 -231 -19 -221 -141 l4 -46 -138 -137 c-76
-76 -141 -138 -145 -138 -4 0 -18 12 -31 28 -13 15 -44 49 -69 75 l-46 49 258
258 c142 143 263 256 268 253 23 -14 91 -3 126 20 47 32 70 78 66 133 -4 54
-17 77 -61 110 -27 21 -46 27 -84 27 -92 -2 -153 -67 -149 -161 l2 -48 -248
-247 c-137 -136 -253 -247 -258 -247 -6 0 -22 13 -36 29 -14 16 -46 50 -70 77
-24 27 -75 84 -114 127 -71 76 -71 78 -69 129 1 44 6 56 36 83 70 63 67 169
-5 226 -31 25 -78 40 -104 33z"/>
<path d="M4933 5624 c-8 -21 5 -32 36 -29 16 1 34 -1 41 -5 8 -5 -10 -87 -65
-291 -42 -156 -81 -291 -86 -301 -7 -13 -22 -18 -53 -18 -40 0 -56 -11 -56
-36 0 -10 405 -3 448 8 124 30 201 121 190 223 -6 53 -31 87 -81 113 l-39 20
39 12 c49 17 107 58 127 92 24 39 20 108 -7 149 -43 64 -77 73 -295 74 -149 1
-195 -1 -199 -11z m383 -55 c50 -47 39 -145 -21 -198 -41 -35 -75 -43 -171
-39 l-71 3 33 120 c19 66 41 125 49 131 10 8 43 11 87 8 56 -3 76 -8 94 -25z
m-107 -290 c38 -13 60 -52 67 -117 7 -59 -25 -126 -75 -159 -30 -20 -47 -23
-137 -23 -57 0 -104 3 -104 7 0 5 58 221 76 286 4 14 17 17 73 17 37 0 82 -5
100 -11z"/>
<path d="M5925 5622 c-8 -21 -8 -21 35 -19 23 2 46 0 52 -4 7 -5 -3 -56 -32
-160 -83 -300 -90 -331 -90 -369 0 -84 52 -140 129 -140 82 0 147 54 206 170
38 74 45 179 17 230 -39 71 -113 76 -182 14 l-39 -36 14 49 c29 100 68 249 69
263 1 21 -171 23 -179 2z m243 -284 c33 -33 2 -198 -55 -295 -65 -111 -143
-109 -143 4 0 156 135 354 198 291z"/>
<path d="M5659 5377 c-134 -50 -215 -230 -164 -363 49 -128 212 -108 281 35
13 27 14 35 3 42 -9 5 -21 -7 -41 -42 -69 -120 -178 -118 -178 4 0 86 5 94 62
101 109 15 180 75 180 153 0 65 -67 98 -143 70z m86 -48 c20 -64 -38 -129
-128 -143 -37 -6 -37 -5 -31 22 11 48 58 116 93 134 38 19 57 15 66 -13z"/>
<path d="M6505 5371 c-94 -44 -157 -142 -163 -253 -15 -253 265 -250 351 4 22
66 17 155 -12 201 -41 66 -102 83 -176 48z m109 -43 c20 -29 20 -75 0 -157
-41 -167 -116 -249 -174 -191 -35 35 -21 162 30 277 37 85 110 120 144 71z"/>
<path d="M6857 5361 c-49 -44 -108 -171 -78 -171 12 0 27 21 36 50 15 48 55
100 76 100 19 0 20 -4 14 -42 -6 -35 -87 -339 -135 -510 -11 -38 -15 -40 -70
-41 -23 -1 -39 -12 -40 -29 0 -5 70 -8 156 -8 143 0 155 1 152 18 -3 14 -14
17 -63 17 -47 0 -60 3 -60 15 0 8 13 66 29 127 l30 113 17 -30 c21 -33 54 -45
105 -37 103 17 196 161 197 307 1 80 -22 125 -70 141 -49 16 -87 3 -133 -47
-22 -24 -43 -44 -45 -44 -3 0 -5 14 -5 30 0 34 -30 70 -60 70 -10 0 -34 -13
-53 -29z m284 -38 c25 -67 -33 -265 -99 -335 -31 -33 -55 -35 -82 -8 -48 48
-7 220 78 328 26 32 40 42 63 42 23 0 32 -6 40 -27z"/>
<path d="M5198 4309 c-10 -6 -78 -221 -78 -246 0 -33 30 -7 50 41 41 102 134
181 199 169 14 -2 27 -5 28 -7 3 -3 -156 -586 -163 -598 -3 -4 -32 -8 -65 -8
-52 0 -59 -2 -59 -20 0 -19 7 -20 170 -20 163 0 170 1 170 20 0 18 -7 20 -55
20 l-56 0 6 33 c8 43 151 567 156 572 12 11 59 11 87 -1 46 -19 65 -68 57
-151 -5 -57 -4 -64 11 -61 13 2 24 33 45 123 15 66 28 125 28 130 1 11 -513
15 -531 4z"/>
<path d="M5826 4063 c-28 -7 -66 -51 -92 -108 -48 -101 -22 -116 29 -16 35 69
59 93 77 75 8 -8 -1 -60 -35 -189 -26 -98 -49 -184 -52 -191 -4 -10 5 -14 34
-14 l39 0 19 63 c28 95 100 258 136 309 24 34 45 38 28 6 -7 -13 -11 -25 -10
-28 2 -3 7 -13 12 -22 14 -26 64 -23 83 4 31 44 12 104 -35 113 -40 8 -72 -13
-109 -70 l-35 -55 -7 52 c-8 67 -29 84 -82 71z"/>
<path d="M6306 4055 c-99 -35 -175 -164 -177 -299 -2 -100 33 -145 110 -146
40 0 49 5 92 49 l47 49 5 -35 c8 -47 23 -63 61 -63 22 0 40 8 57 28 39 43 46
54 68 110 29 73 1 72 -35 -3 -28 -57 -58 -95 -74 -95 -22 0 -17 36 36 232 24
92 44 168 44 170 0 2 -17 4 -37 3 -30 0 -39 -4 -41 -20 -6 -31 -19 -39 -27
-16 -6 21 -53 51 -77 51 -7 -1 -30 -7 -52 -15z m100 -61 c40 -95 -77 -354
-159 -354 -57 0 -50 147 14 286 50 109 115 139 145 68z"/>
<path d="M6812 4049 c-93 -47 -156 -158 -156 -274 1 -103 50 -165 131 -165 72
0 121 35 162 117 17 35 18 42 6 47 -10 3 -22 -7 -35 -32 -52 -98 -126 -131
-169 -76 -23 29 -21 102 5 194 30 104 88 182 131 176 32 -5 38 -31 15 -61 -27
-35 -28 -50 -1 -68 42 -30 81 4 81 70 0 77 -88 114 -170 72z"/>
</g>
</svg>
